<?xml version="1.0" encoding="utf-8"?>
<!-- Generator: Adobe Illustrator 15.1.0, SVG Export Plug-In . SVG Version: 6.00 Build 0)  -->
<!DOCTYPE svg PUBLIC "-//W3C//DTD SVG 1.1//EN" "http://www.w3.org/Graphics/SVG/1.1/DTD/svg11.dtd">
<svg version="1.1" id="Layer_1" xmlns="http://www.w3.org/2000/svg" xmlns:xlink="http://www.w3.org/1999/xlink" x="0px" y="0px"
	 width="356.222px" height="355.377px" viewBox="0 0 356.222 355.377" enable-background="new 0 0 356.222 355.377"
	 xml:space="preserve">
<rect x="-33.21" y="136.701" transform="matrix(0.7071 -0.7071 0.7071 0.7071 -73.179 177.8636)" fill="#FFFFFF" width="422.641" height="81.132"/>
<rect x="-33.21" y="136.701" transform="matrix(-0.7071 -0.7071 0.7071 -0.7071 178.7078 428.5564)" fill="#FFFFFF" width="422.641" height="81.132"/>
<g>
	<path fill="#FFFFFF" d="M668.749,290.108c0,5.09-12.008,17.017-36.016,35.777c-24.012,18.761-45.717,28.146-65.116,28.146
		c-13.356,0-23.058-3.421-29.099-10.256c-6.044-6.835-9.064-14.55-9.064-23.136c0-5.404,0.794-10.413,2.385-15.026
		c1.588-4.61,3.34-9.302,5.248-14.073l45.318-93.975c2.542-5.405,4.372-9.78,5.486-13.12c1.11-3.339,1.669-6.279,1.669-8.825
		c0-2.541-0.477-4.371-1.431-5.485c-0.955-1.11-2.229-1.669-3.816-1.669c-4.137,0-12.165,6.283-24.09,18.843
		c-11.926,12.563-19.003,18.843-21.228,18.843c-2.546,0-5.091-1.749-7.632-5.247c-2.545-3.496-3.817-5.725-3.817-6.678
		c0-3.18,3.019-8.348,9.064-15.504c6.042-7.156,13.674-14.706,22.897-22.659c8.266-7.312,18.206-14.151,29.814-20.513
		c11.605-6.358,21.862-9.541,30.769-9.541c14.312,0,25.045,4.055,32.2,12.165s10.734,17.889,10.734,29.338
		c0,4.77-0.478,9.861-1.432,15.265c-0.954,5.408-3.021,10.972-6.201,16.697l-36.254,79.665c-2.862,6.678-4.93,12.085-6.201,16.219
		c-1.275,4.137-1.908,6.999-1.908,8.586c0,1.908,0.478,3.101,1.431,3.578c0.953,0.478,1.908,0.716,2.862,0.716
		c6.996,0,15.183-5.01,24.567-15.027c9.381-10.018,15.343-15.026,17.889-15.026c2.224,0,4.609,1.669,7.155,5.008
		C667.475,286.53,668.749,288.837,668.749,290.108z M705.481,43.958c0,11.769-4.214,21.943-12.642,30.53
		c-8.429,8.586-18.687,12.879-30.769,12.879c-11.769,0-21.943-4.292-30.53-12.879c-8.586-8.587-12.88-18.761-12.88-30.53
		c0-11.766,4.293-21.944,12.88-30.531c8.587-8.587,18.762-12.879,30.53-12.879c12.082,0,22.34,4.292,30.769,12.879
		C701.267,22.014,705.481,32.193,705.481,43.958z"/>
</g>
</svg>
